<?xml version="1.0" encoding="utf-8"?>
<!-- Generator: Adobe Illustrator 19.0.0, SVG Export Plug-In . SVG Version: 6.00 Build 0)  -->
<svg version="1.1" id="Capa_1" xmlns="http://www.w3.org/2000/svg" xmlns:xlink="http://www.w3.org/1999/xlink" x="0px" y="0px"
	 viewBox="-953 534 12 14" style="enable-background:new -953 534 12 14;" xml:space="preserve">
<style type="text/css">
	.st0{fill:none;}
	.st1{fill:url(#SVGID_1_);}
</style>
<g>
	<path class="st0" d="M-943.8,541c0,0.2-0.1,0.3-0.2,0.4l-4.2,2.5c-0.1,0-0.2,0.1-0.2,0.1c-0.1,0-0.2,0-0.2-0.1
		c-0.2-0.1-0.2-0.2-0.2-0.4v-5c0-0.2,0.1-0.3,0.2-0.4c0.2-0.1,0.3-0.1,0.5,0l4.2,2.5C-943.8,540.7-943.8,540.8-943.8,541z
		 M-941.6,541c0,1-0.2,1.9-0.7,2.7c-0.5,0.8-1.1,1.5-2,2c-0.8,0.5-1.7,0.7-2.7,0.7c-1,0-1.9-0.2-2.7-0.7c-0.8-0.5-1.5-1.1-2-2
		c-0.5-0.8-0.7-1.7-0.7-2.7s0.2-1.9,0.7-2.7c0.5-0.8,1.1-1.5,2-2c0.8-0.5,1.7-0.7,2.7-0.7c1,0,1.9,0.2,2.7,0.7c0.8,0.5,1.5,1.1,2,2
		C-941.9,539.1-941.6,540-941.6,541z"/>
	<linearGradient id="SVGID_1_" gradientUnits="userSpaceOnUse" x1="-952.9454" y1="541.0018" x2="-941.0565" y2="541.0018">
		<stop  offset="0" style="stop-color:#4CA2E8"/>
		<stop  offset="1" style="stop-color:#00A7AA"/>
	</linearGradient>
	<path class="st1" d="M-947,546.9c-1.1,0-2.1-0.3-3-0.8c-0.9-0.5-1.6-1.3-2.2-2.2c-0.5-0.9-0.8-1.9-0.8-3c0-1.1,0.3-2.1,0.8-3
		c0.5-0.9,1.3-1.6,2.2-2.2c1.8-1.1,4.2-1.1,6,0c0.9,0.5,1.6,1.3,2.2,2.2c0.5,0.9,0.8,1.9,0.8,3c0,1.1-0.3,2.1-0.8,3
		c-0.5,0.9-1.3,1.6-2.2,2.2C-944.9,546.7-945.9,546.9-947,546.9z M-947,536.1c-0.9,0-1.7,0.2-2.5,0.7c-0.7,0.4-1.3,1-1.8,1.8
		c-0.4,0.7-0.7,1.6-0.7,2.5c0,0.9,0.2,1.7,0.7,2.5c0.4,0.7,1,1.3,1.8,1.8c1.5,0.9,3.4,0.9,4.9,0c0.7-0.4,1.3-1,1.8-1.8
		c0.4-0.7,0.7-1.6,0.7-2.5c0-0.9-0.2-1.7-0.7-2.5c-0.4-0.7-1-1.3-1.8-1.8C-945.3,536.3-946.1,536.1-947,536.1z M-948.5,544.5
		c-0.2,0-0.3,0-0.5-0.1c-0.4-0.2-0.5-0.5-0.5-0.9v-5c0-0.4,0.2-0.7,0.5-0.9c0.3-0.2,0.7-0.2,1,0l4.2,2.5c0.3,0.2,0.5,0.5,0.5,0.9
		s-0.2,0.7-0.5,0.9l-4.2,2.5C-948.1,544.5-948.3,544.5-948.5,544.5z M-948.5,538.5l0,5l4.2-2.5l0,0c0,0,0,0,0,0L-948.5,538.5z"/>
</g>
</svg>
