<?xml version="1.0" encoding="utf-8"?>
<!-- Generator: Adobe Illustrator 19.0.0, SVG Export Plug-In . SVG Version: 6.00 Build 0)  -->
<svg version="1.1" id="Capa_1" xmlns="http://www.w3.org/2000/svg" xmlns:xlink="http://www.w3.org/1999/xlink" x="0px" y="0px"
	 viewBox="-953.8 533.1 14.7 15.8" style="enable-background:new -953.8 533.1 14.7 15.8;" xml:space="preserve">
<style type="text/css">
	.st0{fill:none;stroke:url(#SVGID_2_);stroke-miterlimit:10;}
</style>
<linearGradient id="SVGID_2_" gradientUnits="userSpaceOnUse" x1="-953.501" y1="541.499" x2="-939.499" y2="541.499">
	<stop  offset="0" style="stop-color:#4CA2E8"/>
	<stop  offset="0.4935" style="stop-color:#00E9C5"/>
	<stop  offset="0.7857" style="stop-color:#00C0B4"/>
	<stop  offset="1" style="stop-color:#00A7AA"/>
</linearGradient>
<path class="st0" d="M-940,547c0,0.3-0.1,0.5-0.3,0.7s-0.4,0.3-0.7,0.3c-0.3,0-0.5-0.1-0.7-0.3l-2.7-2.7c-0.9,0.6-2,1-3.1,1
	c-0.7,0-1.5-0.1-2.1-0.4c-0.7-0.3-1.3-0.7-1.8-1.2s-0.9-1.1-1.2-1.8c-0.3-0.7-0.4-1.4-0.4-2.1s0.1-1.5,0.4-2.1
	c0.3-0.7,0.7-1.3,1.2-1.8s1.1-0.9,1.8-1.2c0.7-0.3,1.4-0.4,2.1-0.4c0.7,0,1.5,0.1,2.1,0.4c0.7,0.3,1.3,0.7,1.8,1.2
	c0.5,0.5,0.9,1.1,1.2,1.8c0.3,0.7,0.4,1.4,0.4,2.1c0,1.1-0.3,2.2-1,3.1l2.7,2.7C-940.1,546.5-940,546.7-940,547L-940,547z"/>
</svg>
