<?xml version="1.0" encoding="utf-8"?>
<!-- Generator: Adobe Illustrator 19.0.0, SVG Export Plug-In . SVG Version: 6.00 Build 0)  -->
<svg version="1.0" id="Capa_1" xmlns="http://www.w3.org/2000/svg" xmlns:xlink="http://www.w3.org/1999/xlink" x="0px" y="0px"
	 viewBox="0 0 418.3 377.4" style="enable-background:new 0 0 418.3 377.4;" xml:space="preserve">
<style type="text/css">
	.st0{display:none;fill:#FFFFFF;stroke:#000000;stroke-miterlimit:10;}
	.st1{fill:#00E9C5;}
	.st2{display:none;fill:#00E9C5;}
	.st3{fill:#4CA2E8;}
	.st4{display:none;fill:#4CA2E8;}
	.st5{fill:#00A7AA;}
	.st6{display:none;fill:#00A7AA;}
	.st7{fill:url(#XMLID_95_);}
	.st8{display:none;fill:url(#XMLID_96_);}
	.st9{display:none;}
	.st10{display:inline;fill:#444444;}
</style>
<polyline id="XMLID_1_" class="st0" points="88.7,351.7 223.3,24.3 358,351.7 "/>
<path id="XMLID_27_" class="st1" d="M328.8,377c-1.3,0-2.6-0.3-3.9-0.8l-43.3-18.3c-2.4-1-4.4-3-5.4-5.4l-99.8-243.7
	c-1-2.4-1-5.2,0-7.6l17.7-42.9c1.5-3.7,5.2-6.2,9.2-6.2s7.7,2.4,9.2,6.2L338,363.2c1.5,3.7,0.7,8.1-2.2,10.9
	C333.9,376,331.4,377,328.8,377z"/>
<path id="XMLID_21_" class="st2" d="M320.8,367l-43.3-18.3L177.7,105l17.7-42.9"/>
<path id="XMLID_26_" class="st3" d="M48.5,377.4c-1.6,0-3.2-0.4-4.6-1.1L5.4,356.4c-4.6-2.4-6.6-7.9-4.6-12.8L142.5,6.1
	c1.6-3.7,5.2-6.1,9.2-6.1h43.7c3.3,0,6.5,1.7,8.3,4.4c1.9,2.8,2.2,6.3,0.9,9.4L57.7,371.2c-1.1,2.6-3.2,4.6-5.8,5.6
	C50.8,377.2,49.7,377.4,48.5,377.4z"/>
<path id="XMLID_23_" class="st4" d="M48.5,367.4L10,347.5L151.7,10h43.7"/>
<path id="XMLID_28_" class="st5" d="M352.8,358c-4,0-7.6-2.6-9.2-6.3L321,297.5c-1-2.4-1-5.2,0-7.7l40.8-100.2
	c0.8-1.9,2.1-3.6,3.9-4.7l37.3-23.8c1.6-1,3.5-1.6,5.4-1.6c1.7,0,3.3,0.4,4.8,1.2c3.2,1.8,5.2,5.1,5.2,8.8v48.9
	c0,1.4-0.3,2.7-0.8,3.9c0,0-37,86.3-55.5,129.3C360.4,355.4,356.8,358,352.8,358C352.8,358,352.8,358,352.8,358z"/>
<path id="XMLID_20_" class="st6" d="M312.3,293.5L353,193.3l37.3-23.8v48.9c0,0-37,86.1-55.5,129.1"/>
<linearGradient id="XMLID_95_" gradientUnits="userSpaceOnUse" x1="102.2941" y1="245.2182" x2="226.1177" y2="245.2182">
	<stop  offset="0" style="stop-color:#4CA2E8"/>
	<stop  offset="1" style="stop-color:#00A7AA"/>
</linearGradient>
<path id="XMLID_32_" class="st7" d="M111.1,299.2c-2.3,0-4.5-0.9-6.2-2.5c-2.5-2.4-3.3-6.1-2-9.3l21.3-56.5c0.8-2,2.3-3.7,4.2-4.7
	l65.5-33.8c1.3-0.7,2.6-1,4-1c1,0,2.1,0.2,3.1,0.6c2.3,0.9,4.2,2.7,5.1,5l19.5,48.8c0.9,2.2,0.8,4.6-0.1,6.7
	c-0.9,2.1-2.7,3.8-4.9,4.7l-106.3,41.5C113.2,299,112.2,299.2,111.1,299.2z"/>
<linearGradient id="XMLID_96_" gradientUnits="userSpaceOnUse" x1="100.2946" y1="239.6989" x2="221.2916" y2="239.6989">
	<stop  offset="0" style="stop-color:#4CA2E8"/>
	<stop  offset="1" style="stop-color:#00A7AA"/>
</linearGradient>
<path id="XMLID_25_" class="st8" d="M100.3,291.1l24.3-64.3l74.6-38.5l22.2,55.5"/>
<rect id="XMLID_54_" x="533.6" y="14.7" style="fill:none;" width="1182.3" height="353.1"/>
<text id="XMLID_53_" transform="matrix(1 0 0 1 533.6026 280.6799)" style="display:none;fill:#444444; font-family:'Futura-Medium'; font-size:302px;">Appunta</text>
</svg>
