<?xml version="1.0" encoding="utf-8"?>
<!-- Generator: Adobe Illustrator 19.0.0, SVG Export Plug-In . SVG Version: 6.00 Build 0)  -->
<svg version="1.1" id="Capa_1" xmlns="http://www.w3.org/2000/svg" xmlns:xlink="http://www.w3.org/1999/xlink" x="0px" y="0px"
	 viewBox="-991.7 487.6 86.4 100.2" style="enable-background:new -991.7 487.6 86.4 100.2;" xml:space="preserve">
<style type="text/css">
	.st0{display:none;fill:none;}
	.st1{fill:url(#SVGID_1_);}
</style>
<g>
	<path class="st0" d="M-973.1,585.3c-4.8,0-8.7-1.4-11.6-4.2c-2.9-2.8-4.4-6.6-4.4-11.4c0-2,0.1-4,0.2-5.9c0.1-1.9,0.4-4,0.8-6.3
		c0.4-2.2,0.9-4.3,1.5-6.2c0.6-1.9,1.5-3.9,2.5-5.7c1.1-1.9,2.3-3.5,3.7-4.8c1.4-1.3,3.1-2.4,5.1-3.2c2-0.8,4.2-1.2,6.7-1.2
		c0.5,0,1.2,0.2,2.9,1.4c1.2,0.8,2.6,1.7,4.2,2.7c1.5,0.9,3.4,1.8,5.9,2.6c2.4,0.8,4.8,1.2,7.2,1.2s4.8-0.4,7.2-1.2
		c2.4-0.8,4.4-1.7,5.9-2.6c1.6-1,3-1.9,4.2-2.7c1.8-1.1,2.4-1.4,2.9-1.4c2.4,0,4.6,0.4,6.7,1.2c2,0.8,3.7,1.9,5.1,3.2
		c1.4,1.3,2.6,2.9,3.7,4.8c1,1.8,1.9,3.7,2.5,5.7c0.6,1.9,1.1,4,1.5,6.2c0.4,2.2,0.7,4.3,0.8,6.3c0.1,1.6,0.2,3.2,0.2,4.9h0l0,1
		c0,4.8-1.5,8.6-4.4,11.4c-2.9,2.8-6.8,4.2-11.6,4.2H-973.1z M-948.5,535.4c-6.2,0-11.6-2.2-16-6.6c-4.4-4.4-6.6-9.8-6.6-16
		c0-6.2,2.2-11.6,6.6-16c4.4-4.4,9.8-6.6,16-6.6s11.6,2.2,16,6.6s6.6,9.8,6.6,16c0,6.2-2.2,11.6-6.6,16S-942.3,535.4-948.5,535.4z"
		/>
	<linearGradient id="SVGID_1_" gradientUnits="userSpaceOnUse" x1="-991.6763" y1="537.6941" x2="-905.3242" y2="537.6941">
		<stop  offset="0" style="stop-color:#4CA2E8"/>
		<stop  offset="1" style="stop-color:#00A7AA"/>
	</linearGradient>
	<path class="st1" d="M-923.9,587.8h-49.3c-5.5,0-9.9-1.6-13.3-4.9c-3.5-3.3-5.2-7.7-5.2-13.2c0-2.1,0.1-4.1,0.2-6.1
		c0.1-2,0.4-4.2,0.8-6.5c0.4-2.3,1-4.6,1.6-6.6c0.7-2.1,1.6-4.2,2.7-6.2c1.2-2.1,2.6-3.9,4.1-5.4c1.6-1.6,3.6-2.8,6-3.7
		c2.3-0.9,4.8-1.4,7.6-1.4c1.1,0,2.3,0.5,4.3,1.8c1.2,0.8,2.6,1.7,4.2,2.7c1.3,0.8,3.1,1.6,5.3,2.3c4.3,1.4,8.6,1.4,12.9,0
		c2.2-0.7,4-1.5,5.3-2.3c1.5-1,2.9-1.9,4.2-2.7c2-1.3,3.1-1.8,4.3-1.8c2.7,0,5.3,0.5,7.6,1.4c2.3,0.9,4.3,2.2,5.9,3.7
		c1.6,1.5,2.9,3.3,4.1,5.4c1.1,2,2,4,2.7,6.1c0.7,2,1.2,4.2,1.6,6.6c0.4,2.3,0.7,4.5,0.8,6.5c0.1,0.8,0.1,1.7,0.1,2.6h0l0.1,3.5
		c0,5.5-1.7,10-5.2,13.2C-913.9,586.1-918.4,587.8-923.9,587.8z M-968.8,538.9c-2,0-3.9,0.4-5.6,1c-1.7,0.7-3.2,1.6-4.3,2.7
		c-1.2,1.2-2.3,2.6-3.2,4.2c-1,1.7-1.7,3.4-2.3,5.2c-0.6,1.8-1.1,3.8-1.4,5.9c-0.4,2.1-0.6,4.2-0.8,6c-0.1,1.9-0.2,3.8-0.2,5.7
		c0,4.1,1.2,7.3,3.6,9.6c2.4,2.3,5.8,3.5,9.9,3.5h49.3c4.1,0,7.5-1.2,9.9-3.5c2.4-2.2,3.6-5.3,3.6-9.2l0-1.3c0-1.6-0.1-3.2-0.2-4.8
		c-0.1-1.8-0.4-3.9-0.8-6c-0.4-2.1-0.9-4.1-1.4-5.9c-0.6-1.8-1.3-3.5-2.3-5.2c-0.9-1.6-2-3.1-3.2-4.2c-1.2-1.1-2.6-2-4.3-2.7
		c-1.7-0.7-3.6-1-5.6-1c-0.2,0.1-0.6,0.3-1.7,1c-1.2,0.8-2.6,1.7-4.2,2.7c-1.7,1.1-3.8,2-6.4,2.9c-5.3,1.7-10.7,1.7-16,0
		c-2.6-0.8-4.8-1.8-6.4-2.9c-1.6-1-3-1.9-4.2-2.7C-968.2,539.2-968.7,538.9-968.8,538.9z M-948.5,537.9c-6.9,0-12.9-2.5-17.8-7.4
		c-4.9-4.9-7.4-10.9-7.4-17.8s2.5-12.9,7.4-17.8c4.9-4.9,10.9-7.4,17.8-7.4c6.9,0,12.9,2.5,17.8,7.4c4.9,4.9,7.4,10.9,7.4,17.8
		s-2.5,12.9-7.4,17.8S-941.6,537.9-948.5,537.9z M-948.5,492.6c-5.5,0-10.3,2-14.2,5.9c-3.9,3.9-5.9,8.7-5.9,14.2s2,10.3,5.9,14.2
		c3.9,3.9,8.7,5.9,14.2,5.9c5.5,0,10.3-2,14.2-5.9c3.9-3.9,5.9-8.7,5.9-14.2s-2-10.3-5.9-14.2C-938.2,494.6-943,492.6-948.5,492.6z"
		/>
</g>
<path class="st0" d="M-908.8,569.7c0,4.5-1.4,8.1-4.1,10.7c-2.7,2.6-6.4,3.9-10.9,3.9h-49.3c-4.5,0-8.2-1.3-10.9-3.9
	c-2.7-2.6-4.1-6.2-4.1-10.7c0-2,0.1-3.9,0.2-5.8c0.1-1.9,0.4-3.9,0.8-6.1s0.9-4.2,1.5-6.1c0.6-1.9,1.4-3.7,2.4-5.5
	c1-1.8,2.2-3.3,3.5-4.6s2.9-2.3,4.8-3s4-1.1,6.3-1.1c0.3,0,1.1,0.4,2.4,1.2c1.2,0.8,2.6,1.7,4.2,2.7c1.6,1,3.6,1.9,6.1,2.7
	c2.5,0.8,5,1.2,7.5,1.2c2.5,0,5-0.4,7.5-1.2c2.5-0.8,4.5-1.7,6.1-2.7c1.6-1,3-1.9,4.2-2.7c1.2-0.8,2-1.2,2.4-1.2
	c2.3,0,4.4,0.4,6.3,1.1s3.5,1.8,4.8,3s2.5,2.8,3.5,4.6c1,1.8,1.8,3.6,2.4,5.5c0.6,1.9,1.1,3.9,1.5,6.1s0.7,4.2,0.8,6.1
	C-908.9,565.8-908.8,567.7-908.8,569.7L-908.8,569.7z M-926.9,519.4c0,6-2.1,11.1-6.3,15.3c-4.2,4.2-9.3,6.3-15.3,6.3
	c-6,0-11.1-2.1-15.3-6.3c-4.2-4.2-6.3-9.3-6.3-15.3c0-6,2.1-11.1,6.3-15.3c4.2-4.2,9.3-6.3,15.3-6.3s11.1,2.1,15.3,6.3
	C-929,508.3-926.9,513.4-926.9,519.4z"/>
</svg>
